<?xml version="1.0" standalone="no"?><!DOCTYPE svg PUBLIC "-//W3C//DTD SVG 1.1//EN" "http://www.w3.org/Graphics/SVG/1.1/DTD/svg11.dtd"><svg t="1584281148673" class="icon" viewBox="0 0 1024 1024" version="1.1" xmlns="http://www.w3.org/2000/svg" p-id="1917" xmlns:xlink="http://www.w3.org/1999/xlink" width="200" height="200"><defs><style type="text/css"></style></defs><path d="M512 1024C229.248 1024 0 794.752 0 512 0 229.205333 229.248 0 512 0s512 229.205333 512 512c0 282.752-229.248 512-512 512z m0-938.666667C276.352 85.333333 85.333333 276.352 85.333333 512s191.018667 426.666667 426.666667 426.666667 426.666667-191.018667 426.666667-426.666667S747.648 85.333333 512 85.333333z m213.333333 640h-298.666666a42.666667 42.666667 0 0 1-85.333334 0H298.666667a42.666667 42.666667 0 0 1 0-85.333333h42.666666a42.666667 42.666667 0 0 1 85.333334 0h298.666666a42.666667 42.666667 0 0 1 0 85.333333z m0-170.666666h-42.666666a42.666667 42.666667 0 0 1-85.333334 0H298.666667a42.666667 42.666667 0 0 1 0-85.333334h298.666666a42.666667 42.666667 0 0 1 85.333334 0h42.666666a42.666667 42.666667 0 0 1 0 85.333334z m0-170.666667h-298.666666a42.666667 42.666667 0 0 1-85.333334 0H298.666667a42.666667 42.666667 0 0 1 0-85.333333h42.666666a42.666667 42.666667 0 0 1 85.333334 0h298.666666a42.666667 42.666667 0 0 1 0 85.333333z" p-id="1918"></path></svg>