<?xml version="1.0" standalone="no"?><!DOCTYPE svg PUBLIC "-//W3C//DTD SVG 1.1//EN" "http://www.w3.org/Graphics/SVG/1.1/DTD/svg11.dtd"><svg t="1563979832342" class="icon" viewBox="0 0 1024 1024" version="1.1" xmlns="http://www.w3.org/2000/svg" p-id="2018" xmlns:xlink="http://www.w3.org/1999/xlink" width="200" height="200"><defs><style type="text/css"></style></defs><path d="M786.8 64H237.2c-80.4 0-145.9 65.4-145.9 145.9v604.2c0 80.4 65.5 145.9 145.9 145.9h549.6c80.4 0 145.9-65.4 145.9-145.9V209.9c0-80.5-65.4-145.9-145.9-145.9z m111.4 750.1c0 61.4-50 111.4-111.4 111.4H237.2c-61.5 0-111.4-50-111.4-111.4V209.9c0-61.4 50-111.4 111.4-111.4h549.6c61.4 0 111.4 50 111.4 111.4v604.2z" p-id="2019"></path><path d="M454.6 573.4h-229c-9.5 0-17.2 7.7-17.2 17.2s7.7 17.2 17.2 17.2h229c9.5 0 17.2-7.7 17.2-17.2s-7.6-17.2-17.2-17.2zM798.3 573.4h-229c-9.5 0-17.2 7.7-17.2 17.2s7.7 17.2 17.2 17.2h229c9.5 0 17.2-7.7 17.2-17.2s-7.6-17.2-17.2-17.2zM454.6 691.7h-229c-9.5 0-17.2 7.7-17.2 17.2s7.7 17.2 17.2 17.2h229c9.5 0 17.2-7.7 17.2-17.2s-7.6-17.2-17.2-17.2zM798.3 691.7h-229c-9.5 0-17.2 7.7-17.2 17.2s7.7 17.2 17.2 17.2h229c9.5 0 17.2-7.7 17.2-17.2s-7.6-17.2-17.2-17.2zM454.6 809.9h-229c-9.5 0-17.2 7.7-17.2 17.2s7.7 17.2 17.2 17.2h229c9.5 0 17.2-7.7 17.2-17.2s-7.6-17.2-17.2-17.2zM798.3 809.9h-229c-9.5 0-17.2 7.7-17.2 17.2s7.7 17.2 17.2 17.2h229c9.5 0 17.2-7.7 17.2-17.2s-7.6-17.2-17.2-17.2zM739.8 179.6H284.3c-41.8 0-75.8 34-75.8 75.8v133.4c0 41.8 34 75.8 75.8 75.8h455.5c41.8 0 75.8-34 75.8-75.8V255.4c0-41.7-34-75.8-75.8-75.8z m41.3 209.2c0 22.8-18.5 41.3-41.3 41.3H284.3c-22.8 0-41.3-18.5-41.3-41.3V255.4c0-22.8 18.5-41.3 41.3-41.3h455.5c22.8 0 41.3 18.5 41.3 41.3v133.4z" p-id="2020"></path></svg>