<?xml version="1.0" standalone="no"?><!DOCTYPE svg PUBLIC "-//W3C//DTD SVG 1.1//EN"
        "http://www.w3.org/Graphics/SVG/1.1/DTD/svg11.dtd">
<svg t="1566398915381" class="icon" viewBox="0 0 1024 1024" version="1.1" xmlns="http://www.w3.org/2000/svg" p-id="2034"
     xmlns:xlink="http://www.w3.org/1999/xlink" width="200" height="200">
    <defs>
        <style type="text/css"></style>
    </defs>
    <path d="M643.072 335.872l-69.632-10.24c-8.192-2.048-14.336-6.144-18.432-14.336L524.288 245.76c-4.096-8.192-12.288-14.336-22.528-14.336-10.24 0-18.432 6.144-22.528 14.336l-30.72 65.536c-4.096 8.192-10.24 12.288-18.432 14.336l-69.632 10.24c-8.192 2.048-16.384 8.192-20.48 16.384-2.048 8.192 0 18.432 6.144 24.576l51.2 51.2c6.144 6.144 8.192 14.336 6.144 22.528l-12.288 71.68c-2.048 10.24 2.048 18.432 10.24 24.576 8.192 6.144 16.384 6.144 24.576 2.048L491.52 512c6.144-4.096 16.384-4.096 22.528 0l63.488 32.768c18.432 10.24 38.912-6.144 34.816-26.624l-12.288-71.68c-2.048-8.192 2.048-16.384 6.144-22.528l51.2-51.2c6.144-6.144 8.192-16.384 6.144-24.576-4.096-6.144-10.24-12.288-20.48-12.288z"
          p-id="2035"></path>
    <path d="M772.096 673.792c106.496-110.592 139.264-274.432 79.872-417.792C792.576 112.64 655.36 20.48 501.76 20.48 348.16 20.48 210.944 112.64 151.552 256c-59.392 143.36-26.624 307.2 79.872 417.792l-104.448 190.464c-4.096 6.144-6.144 12.288-2.048 18.432 2.048 6.144 8.192 10.24 16.384 12.288l75.776 8.192c8.192 0 14.336 6.144 16.384 14.336l20.48 75.776c2.048 6.144 8.192 12.288 14.336 14.336 6.144 2.048 14.336 0 18.432-6.144L415.744 778.24c57.344 14.336 116.736 14.336 174.08 0L716.8 999.424c4.096 6.144 12.288 8.192 18.432 6.144 6.144-2.048 12.288-6.144 14.336-14.336l20.48-75.776c2.048-8.192 8.192-12.288 16.384-14.336l75.776-8.192c6.144 0 12.288-6.144 16.384-12.288 2.048-6.144 2.048-14.336-2.048-18.432l-104.448-188.416z m-270.336 40.96c-169.984 0-305.152-139.264-305.152-309.248S331.776 94.208 501.76 94.208s305.152 139.264 305.152 309.248-135.168 311.296-305.152 311.296z"
          p-id="2036"></path>
</svg>
