<svg xmlns="http://www.w3.org/2000/svg" xmlns:xlink="http://www.w3.org/1999/xlink" width="200" height="200" class="icon" p-id="2006" t="1554214393017" version="1.1" viewBox="0 0 1024 1024"><defs><style type="text/css"/></defs><path d="M990.72 302.592v496.64c0 49.152-37.376 88.576-83.456 88.576H824.32v-44.544h83.456c23.04 0 41.472-19.968 41.472-44.544V332.8h-166.4c-46.08 0-83.456-39.936-83.456-88.576v-199.68H324.608c-23.04 0-41.472 19.968-41.472 44.544h-41.472C241.664 39.936 278.528 0 324.608 0h402.944l257.024 294.912m-243.712-213.504v162.816c0 24.576 18.432 44.544 41.472 44.544h140.8l-182.272-207.36z m41.472 354.816v496.128c0 49.152-37.376 89.088-83.456 89.088H116.736c-46.08 0-83.456-39.936-83.456-89.088V221.696c0-49.152 37.376-88.576 83.456-88.576h402.944l257.024 294.912m-243.712-213.504v162.816c0 24.576 18.432 44.544 41.472 44.544h140.8l-182.272-207.36z m-458.24 7.168v710.656c0 24.576 18.432 44.544 41.472 44.544h582.656c23.04 0 41.472-19.968 41.472-44.544V465.92h-166.4c-46.08 0-83.456-39.936-83.456-88.576v-199.68h-373.76c-23.04 0-41.984 19.968-41.984 44.032zM179.2 488.448h208.384v44.544H179.2v-44.544z m0-133.12h208.384V399.36H179.2v-44.032z m457.728 310.784H179.2v-44.544h457.728v44.544z m0 133.12H179.2v-44.544h457.728v44.544z m0 0" p-id="2007"/></svg>