<svg xmlns="http://www.w3.org/2000/svg" xmlns:xlink="http://www.w3.org/1999/xlink" width="200" height="200" class="icon" p-id="869" t="1580795304533" version="1.1" viewBox="0 0 1024 1024"><defs><style type="text/css"/></defs><path d="M800.736589 79.494519 221.216799 79.494519c-22.358217 0-40.421618 18.124799-40.421618 40.458457l0 778.295995c0 22.332634 18.063401 40.444131 40.421618 40.444131l579.51979 0c22.308075 0 40.420595-18.111496 40.420595-40.444131l0-778.295995C841.157183 97.619318 823.044664 79.494519 800.736589 79.494519zM403.432841 789.703813c0 9.119705-9.278317 16.435321-20.729114 16.435321l-68.355831 0c-11.449773 0-20.678972-7.314593-20.678972-16.435321l0-49.340755c0-9.081843 9.229199-16.448624 20.678972-16.448624l68.355831 0c11.449773 0 20.729114 7.366781 20.729114 16.448624L403.432841 789.703813zM403.432841 663.319357c0 9.081843-9.278317 16.435321-20.729114 16.435321l-68.355831 0c-11.449773 0-20.678972-7.353478-20.678972-16.435321l0-49.328475c0-9.105379 9.229199-16.460904 20.678972-16.460904l68.355831 0c11.449773 0 20.729114 7.355525 20.729114 16.460904L403.432841 663.319357zM403.432841 532.358677c0 9.06854-9.278317 16.435321-20.729114 16.435321l-68.355831 0c-11.449773 0-20.678972-7.365758-20.678972-16.435321l0-49.330522c0-9.080819 9.229199-16.435321 20.678972-16.435321l68.355831 0c11.449773 0 20.729114 7.354502 20.729114 16.435321L403.432841 532.358677zM566.894749 789.703813c0 9.119705-9.328459 16.435321-20.729114 16.435321l-68.306712 0c-11.449773 0-20.729114-7.314593-20.729114-16.435321l0-49.340755c0-9.081843 9.278317-16.448624 20.729114-16.448624l68.306712 0c11.400654 0 20.729114 7.366781 20.729114 16.448624L566.894749 789.703813zM566.894749 663.319357c0 9.081843-9.328459 16.435321-20.729114 16.435321l-68.306712 0c-11.449773 0-20.729114-7.353478-20.729114-16.435321l0-49.328475c0-9.105379 9.278317-16.460904 20.729114-16.460904l68.306712 0c11.400654 0 20.729114 7.355525 20.729114 16.460904L566.894749 663.319357zM566.894749 532.358677c0 9.06854-9.328459 16.435321-20.729114 16.435321l-68.306712 0c-11.449773 0-20.729114-7.365758-20.729114-16.435321l0-49.330522c0-9.080819 9.278317-16.435321 20.729114-16.435321l68.306712 0c11.400654 0 20.729114 7.354502 20.729114 16.435321L566.894749 532.358677zM728.28344 788.704043c0 9.081843-9.278317 16.423041-20.729114 16.423041l-68.306712 0c-11.449773 0-20.678972-7.341199-20.678972-16.423041l0-49.328475c0-9.081843 9.229199-16.460904 20.678972-16.460904l68.306712 0c11.449773 0 20.729114 7.379061 20.729114 16.460904L728.28344 788.704043zM728.28344 662.283772c0 9.105379-9.278317 16.458857-20.729114 16.458857l-68.306712 0c-11.449773 0-20.678972-7.353478-20.678972-16.458857l0-49.304939c0-9.107425 9.229199-16.460904 20.678972-16.460904l68.306712 0c11.449773 0 20.729114 7.353478 20.729114 16.460904L728.28344 662.283772zM728.28344 531.334347c0 9.094122-9.278317 16.446577-20.729114 16.446577l-68.306712 0c-11.449773 0-20.678972-7.353478-20.678972-16.446577l0-49.317219c0-9.106402 9.229199-16.45988 20.678972-16.45988l68.306712 0c11.449773 0 20.729114 7.353478 20.729114 16.45988L728.28344 531.334347zM732.18326 382.727775l-100.091626 0c-10.512425 0-19.000749-12.81998-19.000749-28.637224 0-15.793708 8.488325-28.601408 19.000749-28.601408l100.091626 0c10.511401 0 19.000749 12.8077 19.000749 28.601408C751.184009 369.907795 742.694661 382.727775 732.18326 382.727775zM779.31572 252.297167c0 15.410991-13.57211 27.909653-30.204929 27.909653L272.890692 280.20682c-16.731056 0-30.303166-12.498662-30.303166-27.909653l0-70.750367c0-15.423271 13.57211-27.934213 30.303166-27.934213l476.221122 0c16.632819 0 30.204929 12.511965 30.204929 27.934213L779.316743 252.297167zM727.592708 168.789241c-8.340969 0-15.102976 5.613858-15.102976 12.573363l0 72.588225c0 6.909363 6.760984 12.56006 15.102976 12.56006 8.390088 0 15.20019-5.650697 15.20019-12.56006l0-72.588225C742.793922 174.403099 735.983819 168.789241 727.592708 168.789241z" p-id="870"/></svg>