<?xml version="1.0" standalone="no"?><!DOCTYPE svg PUBLIC "-//W3C//DTD SVG 1.1//EN" "http://www.w3.org/Graphics/SVG/1.1/DTD/svg11.dtd"><svg t="1620744775151" class="icon" viewBox="0 0 1024 1024" version="1.1" xmlns="http://www.w3.org/2000/svg" p-id="2144" xmlns:xlink="http://www.w3.org/1999/xlink" width="64" height="64"><defs><style type="text/css"></style></defs><path d="M738.133333 855.466667c-10.666667-21.333333-36.266667-29.866667-57.6-19.2-53.333333 27.733333-108.8 40.533333-168.533333 40.533333-202.666667 0-366.933333-164.266667-366.933333-366.933333 0-51.2 10.666667-100.266667 29.866666-145.066667l38.4 19.2-8.533333-170.666667-142.933333 91.733334 38.4 19.2C74.666667 384 61.866667 448 61.866667 509.866667c0 249.6 202.666667 452.266667 452.266666 452.266666 72.533333 0 142.933333-17.066667 206.933334-51.2 21.333333-8.533333 27.733333-34.133333 17.066666-55.466666zM962.133333 514.133333c0-249.6-202.666667-452.266667-452.266666-452.266666-49.066667 0-96 8.533333-140.8 23.466666-23.466667 6.4-44.8 17.066667-66.133334 27.733334S273.066667 149.333333 283.733333 170.666667c10.666667 21.333333 36.266667 29.866667 57.6 19.2 17.066667-8.533333 34.133333-17.066667 53.333334-23.466667 36.266667-12.8 74.666667-19.2 115.2-19.2 202.666667 0 366.933333 164.266667 366.933333 366.933333 0 51.2-10.666667 100.266667-29.866667 145.066667L810.666667 640l8.533333 170.666667 142.933333-91.733334-38.4-19.2c25.6-59.733333 38.4-123.733333 38.4-185.6z" fill="#0558FF" p-id="2145"></path><path d="M640 554.666667h-85.333333v-64h85.333333c23.466667 0 42.666667-19.2 42.666667-42.666667s-19.2-42.666667-42.666667-42.666667h-68.266667l55.466667-55.466666c17.066667-17.066667 17.066667-42.666667 0-59.733334-17.066667-17.066667-42.666667-17.066667-59.733333 0L512 345.6l-55.466667-55.466667c-17.066667-17.066667-42.666667-17.066667-59.733333 0-17.066667 17.066667-17.066667 42.666667 0 59.733334l55.466667 55.466666H384c-23.466667 0-42.666667 19.2-42.666667 42.666667s19.2 42.666667 42.666667 42.666667h85.333333v64h-85.333333c-23.466667 0-42.666667 19.2-42.666667 42.666666s19.2 42.666667 42.666667 42.666667h85.333333v42.666667c0 23.466667 19.2 42.666667 42.666667 42.666666s42.666667-19.2 42.666667-42.666666v-42.666667h85.333333c23.466667 0 42.666667-19.2 42.666667-42.666667s-19.2-42.666667-42.666667-42.666666z" fill="#36D1EB" p-id="2146"></path></svg>