<svg xmlns="http://www.w3.org/2000/svg" xmlns:xlink="http://www.w3.org/1999/xlink" width="200" height="200" class="icon" p-id="1973" t="1553993185796" version="1.1" viewBox="0 0 1024 1024"><defs><style type="text/css"/></defs><path d="M844.749 261.876h-55.615V67.229H233.002v194.646h-55.613c-61.343 0-111.227 49.883-111.227 111.226v361.487H233V957.04h556.133V734.588h166.84V373.102c0-61.344-49.884-111.226-111.225-111.226zM288.615 122.842h444.907v139.033H288.615V122.842z m444.907 778.585H288.615v-250.26h444.907v250.26zM900.36 678.975H789.134v-83.42H233.002v83.42H121.775V373.102c0-30.658 24.955-55.614 55.614-55.614h667.36c30.656 0 55.612 24.956 55.612 55.614v305.872zM511.067 400.907H260.81c-15.37 0-27.807 12.438-27.807 27.807 0 15.37 12.438 27.807 27.807 27.807h250.26c15.368 0 27.806-12.438 27.806-27.807 0-15.37-12.439-27.807-27.808-27.807z" p-id="1974"/></svg>