<svg xmlns="http://www.w3.org/2000/svg" xmlns:xlink="http://www.w3.org/1999/xlink" width="200" height="200" class="icon" p-id="1307" t="1569660165017" version="1.1" viewBox="0 0 1024 1024"><defs><style type="text/css"/></defs><path fill="#FF9D33" d="M838.4 288l-76.8-115.2c-6.4-6.4-12.8-12.8-25.6-12.8h-448c-12.8 0-19.2 6.4-25.6 12.8L185.6 288h652.8z m25.6 64h-704V832c0 19.2 12.8 32 32 32h640c19.2 0 32-12.8 32-32V352z m-576-256h441.6c32 0 64 19.2 76.8 44.8l96 147.2c12.8 12.8 19.2 32 19.2 51.2V832c0 51.2-44.8 96-96 96H192c-51.2 0-96-44.8-96-96V339.2c0-19.2 6.4-38.4 19.2-51.2l96-147.2c19.2-25.6 44.8-44.8 76.8-44.8z m-32 448c-19.2 0-32-12.8-32-32s12.8-32 32-32h192c19.2 0 32 12.8 32 32s-12.8 32-32 32H256z m339.2 121.6l160-160c12.8-12.8 32-12.8 44.8 0s12.8 32 0 44.8l-179.2 179.2c-12.8 12.8-32 12.8-44.8 0L486.4 640c-12.8-12.8-12.8-32 0-44.8 12.8-12.8 32-12.8 44.8 0l64 70.4z m-339.2 6.4c-19.2 0-32-12.8-32-32s12.8-32 32-32h128c19.2 0 32 12.8 32 32s-12.8 32-32 32H256z" p-id="1308"/></svg>