<?xml version="1.0" standalone="no"?><!DOCTYPE svg PUBLIC "-//W3C//DTD SVG 1.1//EN" "http://www.w3.org/Graphics/SVG/1.1/DTD/svg11.dtd">
<svg t="1553998137854" class="icon" style="" viewBox="0 0 1024 1024" version="1.1" xmlns="http://www.w3.org/2000/svg" p-id="2020"
     xmlns:xlink="http://www.w3.org/1999/xlink" width="200" height="200">
  <defs>
    <style type="text/css"></style>
  </defs>
  <path
    d="M869.770957 169.812705l-68.964191-15.103101 15.169468-69.059L424.907369 0l-15.169468 69.059-68.954709-15.103101a117.904684 117.904684 0 0 0-140.232244 89.85065L64.348095 765.166889a117.933127 117.933127 0 0 0 89.793765 140.251205l528.949841 115.866287a117.980531 117.980531 0 0 0 140.260686-89.850651L959.593165 310.025986a117.885722 117.885722 0 0 0-89.822208-140.241724zM460.849525 56.117548l298.990199 65.494175-25.209758 115.013004-298.990199-65.494175z m316.510934 865.219006a70.661275 70.661275 0 0 1-84.133658 53.861089l-528.94036-115.866287a70.632832 70.632832 0 0 1-53.908494-84.095733l136.202853-621.369821a70.737122 70.737122 0 0 1 84.162101-53.927456l68.954709 15.103101-20.194353 92.088147 391.030941 85.650604 20.194354-92.088147 68.96419 15.112582a70.708679 70.708679 0 0 1 53.870571 84.171581zM579.313583 395.581782L763.243373 435.88516l10.087696-46.020371-183.977195-40.303379zM250.031854 468.167682l482.948432 105.797553 10.097177-46.039333-482.957913-105.797553z m-30.272568 138.061114L702.717199 712.016868l10.087696-46.020371-482.948432-105.778591zM189.496199 744.251986l482.957913 105.788072 10.087696-46.00141-482.957913-105.797553z m0 0"
    p-id="2021"></path>
</svg>
