<svg xmlns="http://www.w3.org/2000/svg" xmlns:xlink="http://www.w3.org/1999/xlink" width="200" height="200" class="icon" p-id="2644" t="1591278949962" version="1.1" viewBox="0 0 1024 1024"><defs><style type="text/css"/></defs><path d="M952 359.1L676.9 85.3c-5.1-5.1-12.1-8-19.5-8H359.7c-66.7 0-120.9 54-120.9 120.7v288.5L259 467l1.4-1.2 2-1.2c9-7.4 20.1-12.3 31.7-14.4V197.9c0-36.2 29.4-65.6 65.6-65.6H622v156c0 66.7 54.2 121 120.9 121H905V826c0 36.2-29.4 65.7-65.8 65.7H490.4v33.7c0 7.5-1.7 14.6-4.3 21.4h353c66.7 0 120.9-54.4 120.9-120.9V378.6c0-7.4-2.9-14.4-8-19.5zM742.9 354c-36.3 0-65.7-29.5-65.7-65.7v-125L868.7 354H742.9z" p-id="2645"/><path d="M529.1 264.9H398.9c-12.2 0-22.1 10-22.1 22.2 0.1 12 9.8 22 22.1 22h130.2c12.1 0 22.1-9.9 22.1-22.1s-10-22.1-22.1-22.1zM399 356.6c-12.2 0-22.1 9.9-22.1 22.1 0 12.4 9.9 22.2 22.1 22.2h130.2c12.2 0.1 22.1-9.8 22.1-22.2 0-12.1-10-22.1-22.1-22.1H399zM608 708.3h191.6c12.1 0 22.1-9.9 22.1-22.1 0-12.2-10-22.2-22.1-22.2H608c-12.2 0-22.1 10-22.1 22.2s9.8 22.1 22.1 22.1zM799.6 756H609.4c-12.2 0-22.1 10-22.1 22.2s9.9 22 22.1 22h190.1c12.1 0 22.1-9.7 22.1-22 0.1-12.2-9.9-22.2-22-22.2zM799.6 616.5c12.1 0 22.1-9.9 22.1-22.1 0-12.2-10-22.2-22.1-22.2H608c-12.2 0-22.1 10-22.1 22.2s9.8 22.1 22.1 22.1h191.6zM550.2 721.6c0-5.8-2.7-11.1-7.5-14.9L326.5 499.1c-4.8-4.5-11.6-7.5-19.4-7.5-6.9 0-13.3 2.3-17.7 5.9h-0.6l-217 209c-0.1 0.1-0.4 0.2-0.5 0.4l-0.4 0.4c-4.3 3.8-6.9 8.9-6.9 14.4 0 11.5 11.6 21.2 25.8 21.2h76.8v182.5c0 11.2 11.2 20.4 25 20.4h231.2c13.8 0 25-9.2 25-20.4V742.8h76.6c14.1 0 25.8-9.5 25.8-21.2z" p-id="2646"/></svg>